<?xml version="1.0" encoding="UTF-8" standalone="no"?>
<!-- Created with Inkscape (http://www.inkscape.org/) -->

<svg
   width="76.97802mm"
   height="26.172718mm"
   viewBox="0 0 76.978021 26.172718"
   version="1.1"
   id="svg5"
   inkscape:version="1.1 (1:1.1+202105261517+ce6663b3b7)"
   sodipodi:docname="amongus.svg"
   xmlns:inkscape="http://www.inkscape.org/namespaces/inkscape"
   xmlns:sodipodi="http://sodipodi.sourceforge.net/DTD/sodipodi-0.dtd"
   xmlns="http://www.w3.org/2000/svg"
   xmlns:svg="http://www.w3.org/2000/svg">
  <sodipodi:namedview
     id="namedview7"
     pagecolor="#ffffff"
     bordercolor="#666666"
     borderopacity="1.0"
     inkscape:pageshadow="2"
     inkscape:pageopacity="0.0"
     inkscape:pagecheckerboard="0"
     inkscape:document-units="mm"
     showgrid="false"
     inkscape:snap-global="false"
     inkscape:zoom="2.7758979"
     inkscape:cx="140.85533"
     inkscape:cy="59.800471"
     inkscape:window-width="1920"
     inkscape:window-height="1043"
     inkscape:window-x="0"
     inkscape:window-y="0"
     inkscape:window-maximized="1"
     inkscape:current-layer="layer1" />
  <defs
     id="defs2">
    <filter
       inkscape:collect="always"
       style="color-interpolation-filters:sRGB"
       id="filter3389"
       x="-0.13938207"
       y="-0.16686906"
       width="1.2781599"
       height="1.3352116">
      <feGaussianBlur
         inkscape:collect="always"
         stdDeviation="0.25337846"
         id="feGaussianBlur3391" />
    </filter>
    <filter
       inkscape:collect="always"
       style="color-interpolation-filters:sRGB"
       id="filter3393"
       x="-0.10480144"
       y="-0.054182914"
       width="1.209885"
       height="1.1084206">
      <feGaussianBlur
         inkscape:collect="always"
         stdDeviation="0.25337846"
         id="feGaussianBlur3395" />
    </filter>
    <filter
       inkscape:collect="always"
       style="color-interpolation-filters:sRGB"
       id="filter3397"
       x="-0.32516696"
       y="-0.10658967"
       width="1.6490238"
       height="1.2147205">
      <feGaussianBlur
         inkscape:collect="always"
         stdDeviation="0.25337846"
         id="feGaussianBlur3399" />
    </filter>
    <filter
       inkscape:collect="always"
       style="color-interpolation-filters:sRGB"
       id="filter5551"
       x="-0.35891718"
       y="-0.42972514"
       width="1.7172301"
       height="1.8609237">
      <feGaussianBlur
         inkscape:collect="always"
         stdDeviation="0.98287212"
         id="feGaussianBlur5549" />
    </filter>
    <filter
       inkscape:collect="always"
       style="color-interpolation-filters:sRGB"
       id="filter5555"
       x="-0.27019043"
       y="-0.13978096"
       width="1.540663"
       height="1.2796167">
      <feGaussianBlur
         inkscape:collect="always"
         stdDeviation="0.98287212"
         id="feGaussianBlur5553" />
    </filter>
    <filter
       inkscape:collect="always"
       style="color-interpolation-filters:sRGB"
       id="filter5559"
       x="-0.83685308"
       y="-0.27498834"
       width="2.672396"
       height="1.5515179">
      <feGaussianBlur
         inkscape:collect="always"
         stdDeviation="0.98287212"
         id="feGaussianBlur5557" />
    </filter>
    <filter
       inkscape:collect="always"
       style="color-interpolation-filters:sRGB"
       id="filter9906"
       x="-0.0138234"
       y="-0.047952309"
       width="1.0276468"
       height="1.0959046">
      <feGaussianBlur
         inkscape:collect="always"
         stdDeviation="0.17944853"
         id="feGaussianBlur9908" />
    </filter>
    <filter
       inkscape:collect="always"
       style="color-interpolation-filters:sRGB"
       id="filter9910"
       x="-0.03507623"
       y="-0.047924775"
       width="1.0701525"
       height="1.0958496">
      <feGaussianBlur
         inkscape:collect="always"
         stdDeviation="0.17944853"
         id="feGaussianBlur9912" />
    </filter>
    <filter
       inkscape:collect="always"
       style="color-interpolation-filters:sRGB"
       id="filter9914"
       x="-0.012472487"
       y="-0.047299069"
       width="1.024945"
       height="1.0945981">
      <feGaussianBlur
         inkscape:collect="always"
         stdDeviation="0.17944853"
         id="feGaussianBlur9916" />
    </filter>
    <filter
       inkscape:collect="always"
       style="color-interpolation-filters:sRGB"
       id="filter9952"
       x="-0.042580954"
       y="-0.14771004"
       width="1.0851619"
       height="1.2954201">
      <feGaussianBlur
         inkscape:collect="always"
         stdDeviation="0.55276486"
         id="feGaussianBlur9950" />
    </filter>
    <filter
       inkscape:collect="always"
       style="color-interpolation-filters:sRGB"
       id="filter9956"
       x="-0.10804717"
       y="-0.14762523"
       width="1.2160943"
       height="1.2952505">
      <feGaussianBlur
         inkscape:collect="always"
         stdDeviation="0.55276486"
         id="feGaussianBlur9954" />
    </filter>
    <filter
       inkscape:collect="always"
       style="color-interpolation-filters:sRGB"
       id="filter9960"
       x="-0.038419664"
       y="-0.14569783"
       width="1.0768393"
       height="1.2913957">
      <feGaussianBlur
         inkscape:collect="always"
         stdDeviation="0.55276486"
         id="feGaussianBlur9958" />
    </filter>
  </defs>
  <g
     inkscape:label="Layer 1"
     inkscape:groupmode="layer"
     id="layer1"
     transform="translate(-91.682837,-108.69274)">
    <g
       id="g9978">
      <g
         id="g9928"
         style="filter:url(#filter9960)">
        <path
           d="m 119.02723,111.41597 q 0.98185,0 1.98954,2.71817 1.02836,1.98437 2.05155,5.30198 v 0.12403 q 0,0.49609 -0.66146,0.66145 h -0.18087 q -0.65628,0 -1.14721,-1.92752 -0.062,0 -0.30489,-0.78548 h -0.59944 q -1.97404,0.0827 -2.23242,0.36173 -0.50643,2.23242 -0.96634,2.23242 -0.31523,0.0568 -0.36174,0.0568 -0.72347,-0.16536 -0.72347,-0.72347 v -0.18086 q 1.02836,-3.66902 2.11356,-6.69208 0.41341,-1.14721 0.90434,-1.14721 z m -0.5426,4.64569 h 0.062 q 0.98185,-0.11885 1.5658,-0.11885 v -0.062 l -0.84233,-1.92753 q -0.27905,0.27389 -0.78548,2.10839 z"
           style="font-size:10.5833px;line-height:1;font-family:'Happy markers';-inkscape-font-specification:'Happy markers';letter-spacing:0px;word-spacing:0px;fill:#0000ff;stroke-width:0.264583"
           id="path9918" />
        <path
           d="m 124.09151,111.7777 h 0.062 q 0.86816,0.0775 2.47012,2.53731 l 0.11886,0.0568 q 0.5116,-1.0697 1.93269,-2.47013 0.23771,-0.062 0.41858,-0.062 0.78548,0.23255 0.78548,1.57096 0.062,1.01802 0.062,2.58898 v 3.19876 q -0.0827,0.84233 -0.72347,0.84233 h -0.062 q -0.78548,-0.0982 -0.78548,-0.72347 v -4.45966 h -0.11885 q -0.83716,1.6278 -1.50895,1.6278 -0.79065,-0.28939 -1.68465,-1.75183 h -0.12402 v 4.52168 q -0.13436,0.90433 -0.72347,0.90433 h -0.18086 q -0.4961,0 -0.66146,-0.66145 v -6.99697 q 0.14469,-0.72347 0.72347,-0.72347 z"
           style="font-size:10.5833px;line-height:1;font-family:'Happy markers';-inkscape-font-specification:'Happy markers';letter-spacing:0px;word-spacing:0px;fill:#0000ff;stroke-width:0.264583"
           id="path9920" />
        <path
           d="m 133.58961,111.17826 h 0.12402 q 1.49344,0 2.713,1.87068 0.59945,1.14204 0.59945,2.40811 v 0.062 q 0,2.28409 -1.80867,3.79821 -0.72864,0.48059 -1.44694,0.48059 H 133.047 q -2.1859,0 -2.47012,-2.95072 -0.11886,-0.58394 -0.11886,-1.6278 v -0.18087 q 0,-3.11091 3.13159,-3.86021 z m -1.5658,3.91706 v 0.062 q 0,3.07474 0.96635,3.07474 h 0.72347 q 1.13688,0 1.74666,-2.23242 v -0.66145 q 0,-1.84485 -1.62781,-2.59415 -1.74665,0.47025 -1.74665,1.75182 -0.062,0.0103 -0.062,0.59945 z"
           style="font-size:10.5833px;line-height:1;font-family:'Happy markers';-inkscape-font-specification:'Happy markers';letter-spacing:0px;word-spacing:0px;fill:#0000ff;stroke-width:0.264583"
           id="path9922" />
        <path
           d="m 138.20946,111.65885 h 0.29973 q 0.86816,0 1.98953,2.77501 l 1.50895,2.53214 h 0.11885 v -3.31762 q 0,-0.35656 -0.11885,-1.38492 0.25838,-0.60461 0.72347,-0.60461 h 0.11885 q 0.84233,0 0.84233,1.98953 v 2.35127 q 0,3.92223 -0.54261,3.92223 -0.19637,0.11886 -0.36173,0.11886 h -0.11885 q -0.7183,0 -2.17041,-2.59415 -0.9095,-1.27124 -1.26607,-2.22725 h -0.11885 v 4.03592 q -0.1447,0.72346 -0.72347,0.72346 h -0.12402 q -0.72347,-0.18086 -0.72347,-0.84232 v -6.69207 q 0.10852,-0.78548 0.66662,-0.78548 z"
           style="font-size:10.5833px;line-height:1;font-family:'Happy markers';-inkscape-font-specification:'Happy markers';letter-spacing:0px;word-spacing:0px;fill:#0000ff;stroke-width:0.264583"
           id="path9924" />
        <path
           d="m 147.76441,111.11625 h 0.11885 q 2.41328,0.2067 2.41328,0.72346 0.062,0.10852 0.062,0.24288 v 0.18087 q 0,0.64078 -0.84749,0.72347 -1.29707,-0.30489 -1.6278,-0.30489 h -0.0568 q -2.05155,0 -2.05155,2.83702 v 0.42375 q 0.1602,2.02571 1.14721,2.35127 0.76998,0.11885 0.90434,0.11885 0.96118,-0.0413 0.96118,-0.18086 v -1.92753 q -0.11886,0 -1.32292,0.0568 -0.60461,-0.3359 -0.60461,-0.78032 0,-0.84749 1.36942,-0.88883 0.43925,-0.062 1.34358,-0.0775 0.54261,0 0.8475,0.78548 -0.062,1.34358 -0.062,2.1704 v 1.26607 q 0,1.0852 -1.77766,1.11104 -0.3359,0.031 -0.8785,0.031 -2.39777,0 -3.2556,-2.40811 -0.23771,-1.0852 -0.23771,-1.6278 v -0.5426 q 0,-3.07474 2.40811,-4.1031 0.76998,-0.18086 1.14722,-0.18086 z"
           style="font-size:10.5833px;line-height:1;font-family:'Happy markers';-inkscape-font-specification:'Happy markers';letter-spacing:0px;word-spacing:0px;fill:#0000ff;stroke-width:0.264583"
           id="path9926" />
      </g>
      <g
         id="g9934"
         style="fill:#ff0000;filter:url(#filter9956)">
        <path
           d="m 160.42509,111.29711 q 0.38241,0 0.66146,0.5426 0.062,3.14192 0.062,4.15994 0,2.79052 -1.44694,3.61734 -1.22989,0.48576 -1.75182,0.48576 -2.02571,0 -2.71301,-1.57096 -0.18086,-0.56327 -0.18086,-1.02319 v -5.30715 q 0,-0.4961 0.66662,-0.66146 h 0.18087 q 0.51676,0 0.72347,0.78031 v 5.25031 q 0,0.96118 1.26606,0.96118 1.62781,-0.1602 1.62781,-1.56579 0.0568,-0.57878 0.0568,-1.14721 0,-0.98185 -0.0568,-3.67935 0,-0.76481 0.90433,-0.84233 z"
           style="font-size:10.5833px;line-height:1;font-family:'Happy markers';-inkscape-font-specification:'Happy markers';letter-spacing:0px;word-spacing:0px;fill:#ff0000;stroke-width:0.264583"
           id="path9930" />
        <path
           d="m 164.92093,111.11625 q 2.1704,0.5426 2.1704,1.26606 v 0.11886 q -0.18087,0.72863 -0.84232,0.72863 h -0.062 l -1.38493,-0.54776 q -1.38492,0.16536 -1.38492,0.9095 v 0.11885 q 0,0.99219 2.28926,1.44694 1.6278,0.72863 1.6278,2.10839 0,1.84484 -2.05155,2.59415 -0.23254,0.062 -0.48059,0.062 h -0.48059 q -0.68212,0 -2.29442,-0.78548 -0.36174,-0.33589 -0.36174,-0.72347 0,-0.72346 0.90434,-0.72346 1.16271,0.52193 1.75182,0.66145 h 0.48059 q 0.77515,0 0.96635,-1.14204 0,-0.53744 -2.29443,-1.0852 -1.6278,-0.95085 -1.6278,-2.35127 0,-1.757 1.80867,-2.4753 0.97668,-0.18086 1.26607,-0.18086 z"
           style="font-size:10.5833px;line-height:1;font-family:'Happy markers';-inkscape-font-specification:'Happy markers';letter-spacing:0px;word-spacing:0px;fill:#ff0000;stroke-width:0.264583"
           id="path9932" />
      </g>
      <g
         id="g9948"
         style="fill:#ff0000;filter:url(#filter9952)">
        <path
           d="m 116.61395,124.06006 h 0.062 q 0.86816,0.0775 2.47013,2.5373 l 0.11885,0.0568 q 0.5116,-1.06969 1.9327,-2.47012 0.23771,-0.062 0.41857,-0.062 0.78548,0.23254 0.78548,1.57096 0.062,1.01802 0.062,2.58898 v 3.19876 q -0.0827,0.84232 -0.72347,0.84232 h -0.062 q -0.78548,-0.0982 -0.78548,-0.72347 v -4.45966 h -0.11886 q -0.83715,1.6278 -1.50895,1.6278 -0.79064,-0.28938 -1.68464,-1.75182 h -0.12402 v 4.52167 q -0.13436,0.90434 -0.72347,0.90434 h -0.18087 q -0.49609,0 -0.66146,-0.66146 v -6.99697 q 0.1447,-0.72346 0.72347,-0.72346 z"
           style="font-size:10.5833px;line-height:1;font-family:'Happy markers';-inkscape-font-specification:'Happy markers';letter-spacing:0px;word-spacing:0px;fill:#ff0000;stroke-width:0.264583"
           id="path9936" />
        <path
           d="m 126.11205,123.46061 h 0.12402 q 1.49345,0 2.71301,1.87068 0.59944,1.14205 0.59944,2.40812 v 0.062 q 0,2.28409 -1.80867,3.7982 -0.72863,0.48059 -1.44693,0.48059 h -0.72347 q -2.18591,0 -2.47013,-2.95071 -0.11885,-0.58394 -0.11885,-1.6278 v -0.18087 q 0,-3.11091 3.13158,-3.86022 z m -1.56579,3.91706 v 0.062 q 0,3.07474 0.96635,3.07474 h 0.72346 q 1.13688,0 1.74666,-2.23241 v -0.66146 q 0,-1.84484 -1.6278,-2.59415 -1.74666,0.47026 -1.74666,1.75183 -0.062,0.0103 -0.062,0.59944 z"
           style="font-size:10.5833px;line-height:1;font-family:'Happy markers';-inkscape-font-specification:'Happy markers';letter-spacing:0px;word-spacing:0px;fill:#ff0000;stroke-width:0.264583"
           id="path9938" />
        <path
           d="m 132.17368,123.69832 h 0.36173 q 2.96622,0 3.61734,2.4753 0.18087,0.9095 0.24288,1.74665 0,1.76733 -1.44694,3.5605 -0.85782,0.90433 -2.35127,0.90433 h -0.60461 q -0.57361,0 -0.96635,-0.18086 -0.11368,0.0568 -0.18086,0.0568 -0.51677,0 -0.78031,-0.72347 l 0.0568,-0.41858 v -0.12402 q 0,-2.20141 -0.0568,-5.9066 0,-0.96634 1.32291,-1.26606 0.27388,-0.12403 0.78548,-0.12403 z m -0.5426,1.75183 q 0.062,3.2556 0.062,4.8834 v 0.36174 q 0.0155,0.11885 0.11885,0.11885 h 0.90434 q 1.25056,0 1.80867,-1.6278 0.21704,-0.36173 0.30489,-1.26607 -0.20154,-2.47012 -1.20923,-2.47012 -0.39274,-0.18087 -0.96634,-0.18087 h -0.5426 q -0.44442,0 -0.48059,0.18087 z"
           style="font-size:10.5833px;line-height:1;font-family:'Happy markers';-inkscape-font-specification:'Happy markers';letter-spacing:0px;word-spacing:0px;fill:#ff0000;stroke-width:0.264583"
           id="path9940" />
        <path
           d="m 139.50137,123.69832 h 1.20923 q 1.32291,0 1.32291,0.90434 0,0.3669 -0.59945,0.72863 -0.60461,-0.062 -0.90433,-0.062 h -1.68982 l -0.29972,0.062 v 0.11886 q 0,0.51159 -0.062,1.6278 0.062,0 0.062,0.062 0.863,-0.18087 2.04638,-0.18087 1.20923,0.11369 1.20923,0.78032 v 0.062 q 0,0.5271 -0.66663,0.78548 -0.0362,0 -0.78031,-0.062 -1.87068,0.0879 -1.87068,0.29972 v 1.75182 l 0.062,0.11886 0.72347,-0.062 h 1.32291 q 1.26607,0 1.26607,0.78548 0,0.58394 -0.66145,0.84232 l -0.72347,-0.0568 h -0.5426 q -0.79065,0 -2.05155,0.11885 -0.96118,-0.30489 -0.96118,-0.96635 v -2.58898 q 0,-1.52445 0.0568,-3.74136 -0.0568,-0.32556 -0.0568,-0.66145 0.25321,-0.60462 0.72347,-0.60462 h 0.0568 q 0.18087,0 0.18087,0.062 0.58394,-0.12403 1.6278,-0.12403 z"
           style="font-size:10.5833px;line-height:1;font-family:'Happy markers';-inkscape-font-specification:'Happy markers';letter-spacing:0px;word-spacing:0px;fill:#ff0000;stroke-width:0.264583"
           id="path9942" />
        <path
           d="m 143.39259,123.87919 q 0.84749,0 0.84749,1.81384 0.18087,2.99205 0.18087,3.85505 0,0.50126 -0.72347,0.66662 -0.84749,0 -0.84749,-1.32808 -0.11885,-2.86803 -0.29972,-4.22195 0,-0.64596 0.84232,-0.78548 z m 0.12403,6.75409 h 0.0568 q 0.76481,0 0.96635,1.02835 0,0.62012 -0.84233,0.78032 -0.90433,-0.40308 -0.90433,-0.96118 v -0.062 q 0.093,-0.78548 0.72347,-0.78548 z"
           style="font-size:10.5833px;line-height:1;font-family:'Happy markers';-inkscape-font-specification:'Happy markers';letter-spacing:0px;word-spacing:0px;fill:#ff0000;stroke-width:0.264583"
           id="path9944" />
        <path
           d="m 145.89889,123.87919 q 0.84749,0 0.84749,1.81384 0.18087,2.99205 0.18087,3.85505 0,0.50126 -0.72347,0.66662 -0.84749,0 -0.84749,-1.32808 -0.11885,-2.86803 -0.29972,-4.22195 0,-0.64596 0.84232,-0.78548 z m 0.12403,6.75409 h 0.0568 q 0.76481,0 0.96635,1.02835 0,0.62012 -0.84233,0.78032 -0.90433,-0.40308 -0.90433,-0.96118 v -0.062 q 0.093,-0.78548 0.72347,-0.78548 z"
           style="font-size:10.5833px;line-height:1;font-family:'Happy markers';-inkscape-font-specification:'Happy markers';letter-spacing:0px;word-spacing:0px;fill:#ff0000;stroke-width:0.264583"
           id="path9946" />
      </g>
    </g>
    <g
       id="g9996">
      <g
         id="g9884"
         style="filter:url(#filter9914)">
        <path
           d="m 119.02723,111.41597 q 0.98185,0 1.98954,2.71817 1.02836,1.98437 2.05155,5.30198 v 0.12403 q 0,0.49609 -0.66146,0.66145 h -0.18087 q -0.65628,0 -1.14721,-1.92752 -0.062,0 -0.30489,-0.78548 h -0.59944 q -1.97404,0.0827 -2.23242,0.36173 -0.50643,2.23242 -0.96634,2.23242 -0.31523,0.0568 -0.36174,0.0568 -0.72347,-0.16536 -0.72347,-0.72347 v -0.18086 q 1.02836,-3.66902 2.11356,-6.69208 0.41341,-1.14721 0.90434,-1.14721 z m -0.5426,4.64569 h 0.062 q 0.98185,-0.11885 1.5658,-0.11885 v -0.062 l -0.84233,-1.92753 q -0.27905,0.27389 -0.78548,2.10839 z"
           style="font-size:10.5833px;line-height:1;font-family:'Happy markers';-inkscape-font-specification:'Happy markers';letter-spacing:0px;word-spacing:0px;fill:#0000ff;stroke-width:0.264583"
           id="path9874" />
        <path
           d="m 124.09151,111.7777 h 0.062 q 0.86816,0.0775 2.47012,2.53731 l 0.11886,0.0568 q 0.5116,-1.0697 1.93269,-2.47013 0.23771,-0.062 0.41858,-0.062 0.78548,0.23255 0.78548,1.57096 0.062,1.01802 0.062,2.58898 v 3.19876 q -0.0827,0.84233 -0.72347,0.84233 h -0.062 q -0.78548,-0.0982 -0.78548,-0.72347 v -4.45966 h -0.11885 q -0.83716,1.6278 -1.50895,1.6278 -0.79065,-0.28939 -1.68465,-1.75183 h -0.12402 v 4.52168 q -0.13436,0.90433 -0.72347,0.90433 h -0.18086 q -0.4961,0 -0.66146,-0.66145 v -6.99697 q 0.14469,-0.72347 0.72347,-0.72347 z"
           style="font-size:10.5833px;line-height:1;font-family:'Happy markers';-inkscape-font-specification:'Happy markers';letter-spacing:0px;word-spacing:0px;fill:#0000ff;stroke-width:0.264583"
           id="path9876" />
        <path
           d="m 133.58961,111.17826 h 0.12402 q 1.49344,0 2.713,1.87068 0.59945,1.14204 0.59945,2.40811 v 0.062 q 0,2.28409 -1.80867,3.79821 -0.72864,0.48059 -1.44694,0.48059 H 133.047 q -2.1859,0 -2.47012,-2.95072 -0.11886,-0.58394 -0.11886,-1.6278 v -0.18087 q 0,-3.11091 3.13159,-3.86021 z m -1.5658,3.91706 v 0.062 q 0,3.07474 0.96635,3.07474 h 0.72347 q 1.13688,0 1.74666,-2.23242 v -0.66145 q 0,-1.84485 -1.62781,-2.59415 -1.74665,0.47025 -1.74665,1.75182 -0.062,0.0103 -0.062,0.59945 z"
           style="font-size:10.5833px;line-height:1;font-family:'Happy markers';-inkscape-font-specification:'Happy markers';letter-spacing:0px;word-spacing:0px;fill:#0000ff;stroke-width:0.264583"
           id="path9878" />
        <path
           d="m 138.20946,111.65885 h 0.29973 q 0.86816,0 1.98953,2.77501 l 1.50895,2.53214 h 0.11885 v -3.31762 q 0,-0.35656 -0.11885,-1.38492 0.25838,-0.60461 0.72347,-0.60461 h 0.11885 q 0.84233,0 0.84233,1.98953 v 2.35127 q 0,3.92223 -0.54261,3.92223 -0.19637,0.11886 -0.36173,0.11886 h -0.11885 q -0.7183,0 -2.17041,-2.59415 -0.9095,-1.27124 -1.26607,-2.22725 h -0.11885 v 4.03592 q -0.1447,0.72346 -0.72347,0.72346 h -0.12402 q -0.72347,-0.18086 -0.72347,-0.84232 v -6.69207 q 0.10852,-0.78548 0.66662,-0.78548 z"
           style="font-size:10.5833px;line-height:1;font-family:'Happy markers';-inkscape-font-specification:'Happy markers';letter-spacing:0px;word-spacing:0px;fill:#0000ff;stroke-width:0.264583"
           id="path9880" />
        <path
           d="m 147.76441,111.11625 h 0.11885 q 2.41328,0.2067 2.41328,0.72346 0.062,0.10852 0.062,0.24288 v 0.18087 q 0,0.64078 -0.84749,0.72347 -1.29707,-0.30489 -1.6278,-0.30489 h -0.0568 q -2.05155,0 -2.05155,2.83702 v 0.42375 q 0.1602,2.02571 1.14721,2.35127 0.76998,0.11885 0.90434,0.11885 0.96118,-0.0413 0.96118,-0.18086 v -1.92753 q -0.11886,0 -1.32292,0.0568 -0.60461,-0.3359 -0.60461,-0.78032 0,-0.84749 1.36942,-0.88883 0.43925,-0.062 1.34358,-0.0775 0.54261,0 0.8475,0.78548 -0.062,1.34358 -0.062,2.1704 v 1.26607 q 0,1.0852 -1.77766,1.11104 -0.3359,0.031 -0.8785,0.031 -2.39777,0 -3.2556,-2.40811 -0.23771,-1.0852 -0.23771,-1.6278 v -0.5426 q 0,-3.07474 2.40811,-4.1031 0.76998,-0.18086 1.14722,-0.18086 z"
           style="font-size:10.5833px;line-height:1;font-family:'Happy markers';-inkscape-font-specification:'Happy markers';letter-spacing:0px;word-spacing:0px;fill:#0000ff;stroke-width:0.264583"
           id="path9882" />
      </g>
      <g
         id="g9890"
         style="fill:#ff0000;filter:url(#filter9910)">
        <path
           d="m 160.42509,111.29711 q 0.38241,0 0.66146,0.5426 0.062,3.14192 0.062,4.15994 0,2.79052 -1.44694,3.61734 -1.22989,0.48576 -1.75182,0.48576 -2.02571,0 -2.71301,-1.57096 -0.18086,-0.56327 -0.18086,-1.02319 v -5.30715 q 0,-0.4961 0.66662,-0.66146 h 0.18087 q 0.51676,0 0.72347,0.78031 v 5.25031 q 0,0.96118 1.26606,0.96118 1.62781,-0.1602 1.62781,-1.56579 0.0568,-0.57878 0.0568,-1.14721 0,-0.98185 -0.0568,-3.67935 0,-0.76481 0.90433,-0.84233 z"
           style="font-size:10.5833px;line-height:1;font-family:'Happy markers';-inkscape-font-specification:'Happy markers';letter-spacing:0px;word-spacing:0px;fill:#ff0000;stroke-width:0.264583"
           id="path9886" />
        <path
           d="m 164.92093,111.11625 q 2.1704,0.5426 2.1704,1.26606 v 0.11886 q -0.18087,0.72863 -0.84232,0.72863 h -0.062 l -1.38493,-0.54776 q -1.38492,0.16536 -1.38492,0.9095 v 0.11885 q 0,0.99219 2.28926,1.44694 1.6278,0.72863 1.6278,2.10839 0,1.84484 -2.05155,2.59415 -0.23254,0.062 -0.48059,0.062 h -0.48059 q -0.68212,0 -2.29442,-0.78548 -0.36174,-0.33589 -0.36174,-0.72347 0,-0.72346 0.90434,-0.72346 1.16271,0.52193 1.75182,0.66145 h 0.48059 q 0.77515,0 0.96635,-1.14204 0,-0.53744 -2.29443,-1.0852 -1.6278,-0.95085 -1.6278,-2.35127 0,-1.757 1.80867,-2.4753 0.97668,-0.18086 1.26607,-0.18086 z"
           style="font-size:10.5833px;line-height:1;font-family:'Happy markers';-inkscape-font-specification:'Happy markers';letter-spacing:0px;word-spacing:0px;fill:#ff0000;stroke-width:0.264583"
           id="path9888" />
      </g>
      <g
         id="g9904"
         style="fill:#ff0000;filter:url(#filter9906)">
        <path
           d="m 116.61395,124.06006 h 0.062 q 0.86816,0.0775 2.47013,2.5373 l 0.11885,0.0568 q 0.5116,-1.06969 1.9327,-2.47012 0.23771,-0.062 0.41857,-0.062 0.78548,0.23254 0.78548,1.57096 0.062,1.01802 0.062,2.58898 v 3.19876 q -0.0827,0.84232 -0.72347,0.84232 h -0.062 q -0.78548,-0.0982 -0.78548,-0.72347 v -4.45966 h -0.11886 q -0.83715,1.6278 -1.50895,1.6278 -0.79064,-0.28938 -1.68464,-1.75182 h -0.12402 v 4.52167 q -0.13436,0.90434 -0.72347,0.90434 h -0.18087 q -0.49609,0 -0.66146,-0.66146 v -6.99697 q 0.1447,-0.72346 0.72347,-0.72346 z"
           style="font-size:10.5833px;line-height:1;font-family:'Happy markers';-inkscape-font-specification:'Happy markers';letter-spacing:0px;word-spacing:0px;fill:#ff0000;stroke-width:0.264583"
           id="path9892" />
        <path
           d="m 126.11205,123.46061 h 0.12402 q 1.49345,0 2.71301,1.87068 0.59944,1.14205 0.59944,2.40812 v 0.062 q 0,2.28409 -1.80867,3.7982 -0.72863,0.48059 -1.44693,0.48059 h -0.72347 q -2.18591,0 -2.47013,-2.95071 -0.11885,-0.58394 -0.11885,-1.6278 v -0.18087 q 0,-3.11091 3.13158,-3.86022 z m -1.56579,3.91706 v 0.062 q 0,3.07474 0.96635,3.07474 h 0.72346 q 1.13688,0 1.74666,-2.23241 v -0.66146 q 0,-1.84484 -1.6278,-2.59415 -1.74666,0.47026 -1.74666,1.75183 -0.062,0.0103 -0.062,0.59944 z"
           style="font-size:10.5833px;line-height:1;font-family:'Happy markers';-inkscape-font-specification:'Happy markers';letter-spacing:0px;word-spacing:0px;fill:#ff0000;stroke-width:0.264583"
           id="path9894" />
        <path
           d="m 132.17368,123.69832 h 0.36173 q 2.96622,0 3.61734,2.4753 0.18087,0.9095 0.24288,1.74665 0,1.76733 -1.44694,3.5605 -0.85782,0.90433 -2.35127,0.90433 h -0.60461 q -0.57361,0 -0.96635,-0.18086 -0.11368,0.0568 -0.18086,0.0568 -0.51677,0 -0.78031,-0.72347 l 0.0568,-0.41858 v -0.12402 q 0,-2.20141 -0.0568,-5.9066 0,-0.96634 1.32291,-1.26606 0.27388,-0.12403 0.78548,-0.12403 z m -0.5426,1.75183 q 0.062,3.2556 0.062,4.8834 v 0.36174 q 0.0155,0.11885 0.11885,0.11885 h 0.90434 q 1.25056,0 1.80867,-1.6278 0.21704,-0.36173 0.30489,-1.26607 -0.20154,-2.47012 -1.20923,-2.47012 -0.39274,-0.18087 -0.96634,-0.18087 h -0.5426 q -0.44442,0 -0.48059,0.18087 z"
           style="font-size:10.5833px;line-height:1;font-family:'Happy markers';-inkscape-font-specification:'Happy markers';letter-spacing:0px;word-spacing:0px;fill:#ff0000;stroke-width:0.264583"
           id="path9896" />
        <path
           d="m 139.50137,123.69832 h 1.20923 q 1.32291,0 1.32291,0.90434 0,0.3669 -0.59945,0.72863 -0.60461,-0.062 -0.90433,-0.062 h -1.68982 l -0.29972,0.062 v 0.11886 q 0,0.51159 -0.062,1.6278 0.062,0 0.062,0.062 0.863,-0.18087 2.04638,-0.18087 1.20923,0.11369 1.20923,0.78032 v 0.062 q 0,0.5271 -0.66663,0.78548 -0.0362,0 -0.78031,-0.062 -1.87068,0.0879 -1.87068,0.29972 v 1.75182 l 0.062,0.11886 0.72347,-0.062 h 1.32291 q 1.26607,0 1.26607,0.78548 0,0.58394 -0.66145,0.84232 l -0.72347,-0.0568 h -0.5426 q -0.79065,0 -2.05155,0.11885 -0.96118,-0.30489 -0.96118,-0.96635 v -2.58898 q 0,-1.52445 0.0568,-3.74136 -0.0568,-0.32556 -0.0568,-0.66145 0.25321,-0.60462 0.72347,-0.60462 h 0.0568 q 0.18087,0 0.18087,0.062 0.58394,-0.12403 1.6278,-0.12403 z"
           style="font-size:10.5833px;line-height:1;font-family:'Happy markers';-inkscape-font-specification:'Happy markers';letter-spacing:0px;word-spacing:0px;fill:#ff0000;stroke-width:0.264583"
           id="path9898" />
        <path
           d="m 143.39259,123.87919 q 0.84749,0 0.84749,1.81384 0.18087,2.99205 0.18087,3.85505 0,0.50126 -0.72347,0.66662 -0.84749,0 -0.84749,-1.32808 -0.11885,-2.86803 -0.29972,-4.22195 0,-0.64596 0.84232,-0.78548 z m 0.12403,6.75409 h 0.0568 q 0.76481,0 0.96635,1.02835 0,0.62012 -0.84233,0.78032 -0.90433,-0.40308 -0.90433,-0.96118 v -0.062 q 0.093,-0.78548 0.72347,-0.78548 z"
           style="font-size:10.5833px;line-height:1;font-family:'Happy markers';-inkscape-font-specification:'Happy markers';letter-spacing:0px;word-spacing:0px;fill:#ff0000;stroke-width:0.264583"
           id="path9900" />
        <path
           d="m 145.89889,123.87919 q 0.84749,0 0.84749,1.81384 0.18087,2.99205 0.18087,3.85505 0,0.50126 -0.72347,0.66662 -0.84749,0 -0.84749,-1.32808 -0.11885,-2.86803 -0.29972,-4.22195 0,-0.64596 0.84232,-0.78548 z m 0.12403,6.75409 h 0.0568 q 0.76481,0 0.96635,1.02835 0,0.62012 -0.84233,0.78032 -0.90433,-0.40308 -0.90433,-0.96118 v -0.062 q 0.093,-0.78548 0.72347,-0.78548 z"
           style="font-size:10.5833px;line-height:1;font-family:'Happy markers';-inkscape-font-specification:'Happy markers';letter-spacing:0px;word-spacing:0px;fill:#ff0000;stroke-width:0.264583"
           id="path9902" />
      </g>
    </g>
    <g
       id="g9741">
      <path
         style="mix-blend-mode:normal;fill:none;stroke:#ff0000;stroke-width:1;stroke-linecap:round;stroke-miterlimit:4;stroke-dasharray:none;filter:url(#filter5559)"
         d="m 97.967812,117.63176 c -4.625067,-0.66815 -3.273687,3.59259 -3.12366,6.40568 0.04264,0.79949 0.253637,3.3137 0.928177,3.79124 0.379028,0.26833 1.547058,0.0375 1.981959,0.0348"
         id="path5538" />
      <path
         style="mix-blend-mode:normal;fill:none;stroke:#0000ff;stroke-width:1;stroke-linecap:round;stroke-miterlimit:4;stroke-dasharray:none;filter:url(#filter5555)"
         d="m 107.49584,113.72102 c -0.46905,-0.73618 -2.41588,-2.13906 -3.7992,-2.16796 -1.38333,-0.0289 -3.20838,0.42034 -4.207712,1.55257 -0.805662,0.94286 -0.980451,2.95394 -1.075624,4.18646 -0.206097,2.66904 0.16323,5.23184 0.0029,7.89807 -0.06336,1.05375 -0.123246,5.96791 0.773731,6.48391 0.894045,0.51432 2.492635,0.50601 3.072725,-0.57409 0.56083,-1.29335 -0.31406,-3.6987 1.69689,-3.58246 1.66829,0 -0.0283,3.79386 2.42992,3.7994 1.47949,0.003 2.10446,-0.88932 2.45347,-2.79664 0.18001,-1.81628 0.0991,-5.77267 -0.27412,-7.74642"
         id="path5540"
         sodipodi:nodetypes="czcsssccscc" />
      <path
         style="mix-blend-mode:normal;fill:none;stroke:#ff0000;stroke-width:1;stroke-linecap:round;stroke-miterlimit:4;stroke-dasharray:none;filter:url(#filter5551)"
         d="m 108.28175,114.61793 c -0.59675,-0.40917 -1.38493,-0.27262 -2.07731,-0.33356 -1.10631,-0.0974 -2.38578,-0.16909 -3.30297,0.60917 -1.05909,0.89867 -1.24492,4.15808 -0.33433,5.18227 0.50663,0.56983 1.91739,0.58786 2.61473,0.65137 0.94624,0.0862 2.11113,0.35557 3.00721,-0.0924 0.48715,-0.24356 0.76612,-0.82759 1.01875,-1.27722 0.70531,-1.25525 1.11628,-2.57749 0.29824,-3.8873 -0.33803,-0.54125 -0.57345,-0.85459 -1.22432,-0.85229 z"
         id="path5542" />
      <g
         id="g5536">
        <path
           style="fill:none;stroke:#ff0000;stroke-width:1;stroke-linecap:round;stroke-miterlimit:4;stroke-dasharray:none;filter:url(#filter3397)"
           d="m 97.967812,117.63176 c -4.625067,-0.66815 -3.273687,3.59259 -3.12366,6.40568 0.04264,0.79949 0.253637,3.3137 0.928177,3.79124 0.379028,0.26833 1.547058,0.0375 1.981959,0.0348"
           id="path3383" />
        <path
           style="fill:none;stroke:#0000ff;stroke-width:1;stroke-linecap:round;stroke-miterlimit:4;stroke-dasharray:none;filter:url(#filter3393)"
           d="m 107.49584,113.72102 c -0.46905,-0.73618 -2.41588,-2.13906 -3.7992,-2.16796 -1.38333,-0.0289 -3.20838,0.42034 -4.207712,1.55257 -0.805662,0.94286 -0.980451,2.95394 -1.075624,4.18646 -0.206097,2.66904 0.16323,5.23184 0.0029,7.89807 -0.06336,1.05375 -0.123246,5.96791 0.773731,6.48391 0.894045,0.51432 2.492635,0.50601 3.072725,-0.57409 0.56083,-1.29335 -0.31406,-3.6987 1.69689,-3.58246 1.66829,0 -0.0283,3.79386 2.42992,3.7994 1.47949,0.003 2.10446,-0.88932 2.45347,-2.79664 0.18001,-1.81628 0.0991,-5.77267 -0.27412,-7.74642"
           id="path3385"
           sodipodi:nodetypes="czcsssccscc" />
        <path
           style="fill:none;stroke:#ff0000;stroke-width:1;stroke-linecap:round;stroke-miterlimit:4;stroke-dasharray:none;filter:url(#filter3389)"
           d="m 108.28175,114.61793 c -0.59675,-0.40917 -1.38493,-0.27262 -2.07731,-0.33356 -1.10631,-0.0974 -2.38578,-0.16909 -3.30297,0.60917 -1.05909,0.89867 -1.24492,4.15808 -0.33433,5.18227 0.50663,0.56983 1.91739,0.58786 2.61473,0.65137 0.94624,0.0862 2.11113,0.35557 3.00721,-0.0924 0.48715,-0.24356 0.76612,-0.82759 1.01875,-1.27722 0.70531,-1.25525 1.11628,-2.57749 0.29824,-3.8873 -0.33803,-0.54125 -0.57345,-0.85459 -1.22432,-0.85229 z"
           id="path3387" />
      </g>
      <path
         style="fill:none;stroke:#ffffff;stroke-width:1;stroke-linecap:round;stroke-miterlimit:4;stroke-dasharray:none;stroke-opacity:1"
         d="m 97.967812,117.63176 c -4.625067,-0.66815 -3.273687,3.59259 -3.12366,6.40568 0.04264,0.79949 0.253637,3.3137 0.928177,3.79124 0.379028,0.26833 1.547058,0.0375 1.981959,0.0348"
         id="path904" />
      <path
         style="fill:none;stroke:#ffffff;stroke-width:1;stroke-linecap:round;stroke-miterlimit:4;stroke-dasharray:none;stroke-opacity:1"
         d="m 107.49584,113.72102 c -0.46905,-0.73618 -2.41588,-2.13906 -3.7992,-2.16796 -1.38333,-0.0289 -3.20838,0.42034 -4.207712,1.55257 -0.805662,0.94286 -0.980451,2.95394 -1.075624,4.18646 -0.206097,2.66904 0.16323,5.23184 0.0029,7.89807 -0.06336,1.05375 -0.123246,5.96791 0.773731,6.48391 0.894045,0.51432 2.492635,0.50601 3.072725,-0.57409 0.56083,-1.29335 -0.31406,-3.6987 1.69689,-3.58246 1.66829,0 -0.0283,3.79386 2.42992,3.7994 1.47949,0.003 2.10446,-0.88932 2.45347,-2.79664 0.18001,-1.81628 0.0991,-5.77267 -0.27412,-7.74642"
         id="path978"
         sodipodi:nodetypes="czcsssccscc" />
      <path
         style="fill:none;stroke:#ffffff;stroke-width:1;stroke-linecap:round;stroke-miterlimit:4;stroke-dasharray:none;stroke-opacity:1"
         d="m 108.28175,114.61793 c -0.59675,-0.40917 -1.38493,-0.27262 -2.07731,-0.33356 -1.10631,-0.0974 -2.38578,-0.16909 -3.30297,0.60917 -1.05909,0.89867 -1.24492,4.15808 -0.33433,5.18227 0.50663,0.56983 1.91739,0.58786 2.61473,0.65137 0.94624,0.0862 2.11113,0.35557 3.00721,-0.0924 0.48715,-0.24356 0.76612,-0.82759 1.01875,-1.27722 0.70531,-1.25525 1.11628,-2.57749 0.29824,-3.8873 -0.33803,-0.54125 -0.57345,-0.85459 -1.22432,-0.85229 z"
         id="path976" />
    </g>
    <g
       id="g9872"
       style="fill:#ffffff">
      <path
         d="m 119.02723,111.41597 q 0.98185,0 1.98954,2.71817 1.02836,1.98437 2.05155,5.30198 v 0.12403 q 0,0.49609 -0.66146,0.66145 h -0.18087 q -0.65628,0 -1.14721,-1.92752 -0.062,0 -0.30489,-0.78548 h -0.59944 q -1.97404,0.0827 -2.23242,0.36173 -0.50643,2.23242 -0.96634,2.23242 -0.31523,0.0568 -0.36174,0.0568 -0.72347,-0.16536 -0.72347,-0.72347 v -0.18086 q 1.02836,-3.66902 2.11356,-6.69208 0.41341,-1.14721 0.90434,-1.14721 z m -0.5426,4.64569 h 0.062 q 0.98185,-0.11885 1.5658,-0.11885 v -0.062 l -0.84233,-1.92753 q -0.27905,0.27389 -0.78548,2.10839 z"
         style="font-size:10.5833px;line-height:1;font-family:'Happy markers';-inkscape-font-specification:'Happy markers';letter-spacing:0px;word-spacing:0px;fill:#ffffff;stroke-width:0.264583"
         id="path9761" />
      <path
         d="m 124.09151,111.7777 h 0.062 q 0.86816,0.0775 2.47012,2.53731 l 0.11886,0.0568 q 0.5116,-1.0697 1.93269,-2.47013 0.23771,-0.062 0.41858,-0.062 0.78548,0.23255 0.78548,1.57096 0.062,1.01802 0.062,2.58898 v 3.19876 q -0.0827,0.84233 -0.72347,0.84233 h -0.062 q -0.78548,-0.0982 -0.78548,-0.72347 v -4.45966 h -0.11885 q -0.83716,1.6278 -1.50895,1.6278 -0.79065,-0.28939 -1.68465,-1.75183 h -0.12402 v 4.52168 q -0.13436,0.90433 -0.72347,0.90433 h -0.18086 q -0.4961,0 -0.66146,-0.66145 v -6.99697 q 0.14469,-0.72347 0.72347,-0.72347 z"
         style="font-size:10.5833px;line-height:1;font-family:'Happy markers';-inkscape-font-specification:'Happy markers';letter-spacing:0px;word-spacing:0px;fill:#ffffff;stroke-width:0.264583"
         id="path9763" />
      <path
         d="m 133.58961,111.17826 h 0.12402 q 1.49344,0 2.713,1.87068 0.59945,1.14204 0.59945,2.40811 v 0.062 q 0,2.28409 -1.80867,3.79821 -0.72864,0.48059 -1.44694,0.48059 H 133.047 q -2.1859,0 -2.47012,-2.95072 -0.11886,-0.58394 -0.11886,-1.6278 v -0.18087 q 0,-3.11091 3.13159,-3.86021 z m -1.5658,3.91706 v 0.062 q 0,3.07474 0.96635,3.07474 h 0.72347 q 1.13688,0 1.74666,-2.23242 v -0.66145 q 0,-1.84485 -1.62781,-2.59415 -1.74665,0.47025 -1.74665,1.75182 -0.062,0.0103 -0.062,0.59945 z"
         style="font-size:10.5833px;line-height:1;font-family:'Happy markers';-inkscape-font-specification:'Happy markers';letter-spacing:0px;word-spacing:0px;fill:#ffffff;stroke-width:0.264583"
         id="path9765" />
      <path
         d="m 138.20946,111.65885 h 0.29973 q 0.86816,0 1.98953,2.77501 l 1.50895,2.53214 h 0.11885 v -3.31762 q 0,-0.35656 -0.11885,-1.38492 0.25838,-0.60461 0.72347,-0.60461 h 0.11885 q 0.84233,0 0.84233,1.98953 v 2.35127 q 0,3.92223 -0.54261,3.92223 -0.19637,0.11886 -0.36173,0.11886 h -0.11885 q -0.7183,0 -2.17041,-2.59415 -0.9095,-1.27124 -1.26607,-2.22725 h -0.11885 v 4.03592 q -0.1447,0.72346 -0.72347,0.72346 h -0.12402 q -0.72347,-0.18086 -0.72347,-0.84232 v -6.69207 q 0.10852,-0.78548 0.66662,-0.78548 z"
         style="font-size:10.5833px;line-height:1;font-family:'Happy markers';-inkscape-font-specification:'Happy markers';letter-spacing:0px;word-spacing:0px;fill:#ffffff;stroke-width:0.264583"
         id="path9767" />
      <path
         d="m 147.76441,111.11625 h 0.11885 q 2.41328,0.2067 2.41328,0.72346 0.062,0.10852 0.062,0.24288 v 0.18087 q 0,0.64078 -0.84749,0.72347 -1.29707,-0.30489 -1.6278,-0.30489 h -0.0568 q -2.05155,0 -2.05155,2.83702 v 0.42375 q 0.1602,2.02571 1.14721,2.35127 0.76998,0.11885 0.90434,0.11885 0.96118,-0.0413 0.96118,-0.18086 v -1.92753 q -0.11886,0 -1.32292,0.0568 -0.60461,-0.3359 -0.60461,-0.78032 0,-0.84749 1.36942,-0.88883 0.43925,-0.062 1.34358,-0.0775 0.54261,0 0.8475,0.78548 -0.062,1.34358 -0.062,2.1704 v 1.26607 q 0,1.0852 -1.77766,1.11104 -0.3359,0.031 -0.8785,0.031 -2.39777,0 -3.2556,-2.40811 -0.23771,-1.0852 -0.23771,-1.6278 v -0.5426 q 0,-3.07474 2.40811,-4.1031 0.76998,-0.18086 1.14722,-0.18086 z"
         style="font-size:10.5833px;line-height:1;font-family:'Happy markers';-inkscape-font-specification:'Happy markers';letter-spacing:0px;word-spacing:0px;fill:#ffffff;stroke-width:0.264583"
         id="path9769" />
    </g>
    <g
       id="g9821"
       style="fill:#ffffff">
      <path
         d="m 160.42509,111.29711 q 0.38241,0 0.66146,0.5426 0.062,3.14192 0.062,4.15994 0,2.79052 -1.44694,3.61734 -1.22989,0.48576 -1.75182,0.48576 -2.02571,0 -2.71301,-1.57096 -0.18086,-0.56327 -0.18086,-1.02319 v -5.30715 q 0,-0.4961 0.66662,-0.66146 h 0.18087 q 0.51676,0 0.72347,0.78031 v 5.25031 q 0,0.96118 1.26606,0.96118 1.62781,-0.1602 1.62781,-1.56579 0.0568,-0.57878 0.0568,-1.14721 0,-0.98185 -0.0568,-3.67935 0,-0.76481 0.90433,-0.84233 z"
         style="font-size:10.5833px;line-height:1;font-family:'Happy markers';-inkscape-font-specification:'Happy markers';letter-spacing:0px;word-spacing:0px;fill:#ffffff;stroke-width:0.264583"
         id="path9771" />
      <path
         d="m 164.92093,111.11625 q 2.1704,0.5426 2.1704,1.26606 v 0.11886 q -0.18087,0.72863 -0.84232,0.72863 h -0.062 l -1.38493,-0.54776 q -1.38492,0.16536 -1.38492,0.9095 v 0.11885 q 0,0.99219 2.28926,1.44694 1.6278,0.72863 1.6278,2.10839 0,1.84484 -2.05155,2.59415 -0.23254,0.062 -0.48059,0.062 h -0.48059 q -0.68212,0 -2.29442,-0.78548 -0.36174,-0.33589 -0.36174,-0.72347 0,-0.72346 0.90434,-0.72346 1.16271,0.52193 1.75182,0.66145 h 0.48059 q 0.77515,0 0.96635,-1.14204 0,-0.53744 -2.29443,-1.0852 -1.6278,-0.95085 -1.6278,-2.35127 0,-1.757 1.80867,-2.4753 0.97668,-0.18086 1.26607,-0.18086 z"
         style="font-size:10.5833px;line-height:1;font-family:'Happy markers';-inkscape-font-specification:'Happy markers';letter-spacing:0px;word-spacing:0px;fill:#ffffff;stroke-width:0.264583"
         id="path9773" />
    </g>
    <g
       id="g9829"
       style="fill:#ffffff">
      <path
         d="m 116.61395,124.06006 h 0.062 q 0.86816,0.0775 2.47013,2.5373 l 0.11885,0.0568 q 0.5116,-1.06969 1.9327,-2.47012 0.23771,-0.062 0.41857,-0.062 0.78548,0.23254 0.78548,1.57096 0.062,1.01802 0.062,2.58898 v 3.19876 q -0.0827,0.84232 -0.72347,0.84232 h -0.062 q -0.78548,-0.0982 -0.78548,-0.72347 v -4.45966 h -0.11886 q -0.83715,1.6278 -1.50895,1.6278 -0.79064,-0.28938 -1.68464,-1.75182 h -0.12402 v 4.52167 q -0.13436,0.90434 -0.72347,0.90434 h -0.18087 q -0.49609,0 -0.66146,-0.66146 v -6.99697 q 0.1447,-0.72346 0.72347,-0.72346 z"
         style="font-size:10.5833px;line-height:1;font-family:'Happy markers';-inkscape-font-specification:'Happy markers';letter-spacing:0px;word-spacing:0px;fill:#ffffff;stroke-width:0.264583"
         id="path9775" />
      <path
         d="m 126.11205,123.46061 h 0.12402 q 1.49345,0 2.71301,1.87068 0.59944,1.14205 0.59944,2.40812 v 0.062 q 0,2.28409 -1.80867,3.7982 -0.72863,0.48059 -1.44693,0.48059 h -0.72347 q -2.18591,0 -2.47013,-2.95071 -0.11885,-0.58394 -0.11885,-1.6278 v -0.18087 q 0,-3.11091 3.13158,-3.86022 z m -1.56579,3.91706 v 0.062 q 0,3.07474 0.96635,3.07474 h 0.72346 q 1.13688,0 1.74666,-2.23241 v -0.66146 q 0,-1.84484 -1.6278,-2.59415 -1.74666,0.47026 -1.74666,1.75183 -0.062,0.0103 -0.062,0.59944 z"
         style="font-size:10.5833px;line-height:1;font-family:'Happy markers';-inkscape-font-specification:'Happy markers';letter-spacing:0px;word-spacing:0px;fill:#ffffff;stroke-width:0.264583"
         id="path9777" />
      <path
         d="m 132.17368,123.69832 h 0.36173 q 2.96622,0 3.61734,2.4753 0.18087,0.9095 0.24288,1.74665 0,1.76733 -1.44694,3.5605 -0.85782,0.90433 -2.35127,0.90433 h -0.60461 q -0.57361,0 -0.96635,-0.18086 -0.11368,0.0568 -0.18086,0.0568 -0.51677,0 -0.78031,-0.72347 l 0.0568,-0.41858 v -0.12402 q 0,-2.20141 -0.0568,-5.9066 0,-0.96634 1.32291,-1.26606 0.27388,-0.12403 0.78548,-0.12403 z m -0.5426,1.75183 q 0.062,3.2556 0.062,4.8834 v 0.36174 q 0.0155,0.11885 0.11885,0.11885 h 0.90434 q 1.25056,0 1.80867,-1.6278 0.21704,-0.36173 0.30489,-1.26607 -0.20154,-2.47012 -1.20923,-2.47012 -0.39274,-0.18087 -0.96634,-0.18087 h -0.5426 q -0.44442,0 -0.48059,0.18087 z"
         style="font-size:10.5833px;line-height:1;font-family:'Happy markers';-inkscape-font-specification:'Happy markers';letter-spacing:0px;word-spacing:0px;fill:#ffffff;stroke-width:0.264583"
         id="path9779" />
      <path
         d="m 139.50137,123.69832 h 1.20923 q 1.32291,0 1.32291,0.90434 0,0.3669 -0.59945,0.72863 -0.60461,-0.062 -0.90433,-0.062 h -1.68982 l -0.29972,0.062 v 0.11886 q 0,0.51159 -0.062,1.6278 0.062,0 0.062,0.062 0.863,-0.18087 2.04638,-0.18087 1.20923,0.11369 1.20923,0.78032 v 0.062 q 0,0.5271 -0.66663,0.78548 -0.0362,0 -0.78031,-0.062 -1.87068,0.0879 -1.87068,0.29972 v 1.75182 l 0.062,0.11886 0.72347,-0.062 h 1.32291 q 1.26607,0 1.26607,0.78548 0,0.58394 -0.66145,0.84232 l -0.72347,-0.0568 h -0.5426 q -0.79065,0 -2.05155,0.11885 -0.96118,-0.30489 -0.96118,-0.96635 v -2.58898 q 0,-1.52445 0.0568,-3.74136 -0.0568,-0.32556 -0.0568,-0.66145 0.25321,-0.60462 0.72347,-0.60462 h 0.0568 q 0.18087,0 0.18087,0.062 0.58394,-0.12403 1.6278,-0.12403 z"
         style="font-size:10.5833px;line-height:1;font-family:'Happy markers';-inkscape-font-specification:'Happy markers';letter-spacing:0px;word-spacing:0px;fill:#ffffff;stroke-width:0.264583"
         id="path9781" />
      <path
         d="m 143.39259,123.87919 q 0.84749,0 0.84749,1.81384 0.18087,2.99205 0.18087,3.85505 0,0.50126 -0.72347,0.66662 -0.84749,0 -0.84749,-1.32808 -0.11885,-2.86803 -0.29972,-4.22195 0,-0.64596 0.84232,-0.78548 z m 0.12403,6.75409 h 0.0568 q 0.76481,0 0.96635,1.02835 0,0.62012 -0.84233,0.78032 -0.90433,-0.40308 -0.90433,-0.96118 v -0.062 q 0.093,-0.78548 0.72347,-0.78548 z"
         style="font-size:10.5833px;line-height:1;font-family:'Happy markers';-inkscape-font-specification:'Happy markers';letter-spacing:0px;word-spacing:0px;fill:#ffffff;stroke-width:0.264583"
         id="path9783" />
      <path
         d="m 145.89889,123.87919 q 0.84749,0 0.84749,1.81384 0.18087,2.99205 0.18087,3.85505 0,0.50126 -0.72347,0.66662 -0.84749,0 -0.84749,-1.32808 -0.11885,-2.86803 -0.29972,-4.22195 0,-0.64596 0.84232,-0.78548 z m 0.12403,6.75409 h 0.0568 q 0.76481,0 0.96635,1.02835 0,0.62012 -0.84233,0.78032 -0.90433,-0.40308 -0.90433,-0.96118 v -0.062 q 0.093,-0.78548 0.72347,-0.78548 z"
         style="font-size:10.5833px;line-height:1;font-family:'Happy markers';-inkscape-font-specification:'Happy markers';letter-spacing:0px;word-spacing:0px;fill:#ffffff;stroke-width:0.264583"
         id="path9785" />
    </g>
  </g>
</svg>
