<?xml version="1.0" encoding="UTF-8" standalone="no"?>
<svg
   xmlns:dc="http://purl.org/dc/elements/1.1/"
   xmlns:cc="http://creativecommons.org/ns#"
   xmlns:rdf="http://www.w3.org/1999/02/22-rdf-syntax-ns#"
   xmlns:svg="http://www.w3.org/2000/svg"
   xmlns="http://www.w3.org/2000/svg"
   xmlns:sodipodi="http://sodipodi.sourceforge.net/DTD/sodipodi-0.dtd"
   xmlns:inkscape="http://www.inkscape.org/namespaces/inkscape"
   width="104.82248mm"
   height="22.551394mm"
   viewBox="0 0 104.82248 22.551394"
   version="1.1"
   id="svg1001"
   inkscape:version="1.0.2 (1.0.2+r75+1)"
   sodipodi:docname="logo-words.svg">
  <defs
     id="defs995" />
  <sodipodi:namedview
     id="base"
     pagecolor="#ffffff"
     bordercolor="#666666"
     borderopacity="1.0"
     inkscape:pageopacity="0.0"
     inkscape:pageshadow="2"
     inkscape:zoom="1.4"
     inkscape:cx="171.75908"
     inkscape:cy="12.67288"
     inkscape:document-units="mm"
     inkscape:current-layer="layer1"
     inkscape:document-rotation="0"
     showgrid="false"
     inkscape:window-width="1920"
     inkscape:window-height="1043"
     inkscape:window-x="1920"
     inkscape:window-y="0"
     inkscape:window-maximized="1" />
  <metadata
     id="metadata998">
    <rdf:RDF>
      <cc:Work
         rdf:about="">
        <dc:format>image/svg+xml</dc:format>
        <dc:type
           rdf:resource="http://purl.org/dc/dcmitype/StillImage" />
        <dc:title></dc:title>
      </cc:Work>
    </rdf:RDF>
  </metadata>
  <g
     inkscape:label="Layer 1"
     inkscape:groupmode="layer"
     id="layer1"
     transform="translate(-684.12727,-278.4467)">
    <g
       id="g1624"
       transform="matrix(0.61854118,0,0,0.61854118,909.16332,270.43248)"
       style="stroke-width:1.61671">
      <path
         style="opacity:1;vector-effect:none;fill:#4a292f;fill-opacity:1;stroke:none;stroke-width:0.427753px;stroke-linecap:butt;stroke-linejoin:miter;stroke-miterlimit:4;stroke-dasharray:none;stroke-dashoffset:0;stroke-opacity:1"
         d="m -352.76723,28.653716 1.1578,10.042765 0.21609,1.652353 18.18205,2.920998 6.54176,-3.06243 5.46806,-0.5932 4.37864,-3.764691 -1.71798,-7.500673 -2.39056,-5.050009 -1.15094,5.521915 -2.746,3.334557 -15.96417,1.818882 z"
         id="path890"
         sodipodi:nodetypes="ccccccccccccc" />
      <path
         style="opacity:1;vector-effect:none;fill:#000000;fill-opacity:1;stroke:none;stroke-width:0.427753px;stroke-linecap:butt;stroke-linejoin:miter;stroke-miterlimit:4;stroke-dasharray:none;stroke-dashoffset:0;stroke-opacity:1"
         d="m -350.21143,31.484337 0.52753,7.04103 2.90064,1.289245 10.67314,1.606046 2.79654,-2.007509 7.58441,-1.387483 1.82325,1.180078 3.41442,-2.126923 1.72299,-4.351166 -1.61371,-3.703587 c -4.79522,11.381127 -26.43589,9.288809 -29.82921,2.460269 z"
         id="path886"
         sodipodi:nodetypes="ccccccccccc" />
      <path
         style="opacity:1;vector-effect:none;fill:#333333;fill-opacity:1;stroke:none;stroke-width:0.427753px;stroke-linecap:butt;stroke-linejoin:miter;stroke-miterlimit:4;stroke-dasharray:none;stroke-dashoffset:0;stroke-opacity:1"
         d="m -363.81741,28.473517 2.63429,7.606878 2.46511,2.841958 0.4996,-5.114433 -0.0605,-1.782521 -1.94175,-3.052823 -2.39042,-3.279813 z"
         id="path864"
         sodipodi:nodetypes="cccccccc" />
      <path
         style="opacity:1;vector-effect:none;fill:#1a1a1a;fill-opacity:1;stroke:none;stroke-width:0.427753px;stroke-linecap:butt;stroke-linejoin:miter;stroke-miterlimit:4;stroke-dasharray:none;stroke-dashoffset:0;stroke-opacity:1"
         d="m -362.6111,25.692763 1.94386,-3.057746 0.1095,2.345647 2.84259,2.643757 1.21284,2.86586 -0.40103,2.071649 -0.38265,7.62531 -1.43202,-1.264887 0.44018,-6.464287 z"
         id="path866"
         sodipodi:nodetypes="cccccccccc" />
      <path
         id="path888"
         style="opacity:1;vector-effect:none;fill:#ba4c28;fill-opacity:1;stroke:none;stroke-width:0.427753px;stroke-linecap:butt;stroke-linejoin:miter;stroke-miterlimit:4;stroke-dasharray:none;stroke-dashoffset:0;stroke-opacity:1"
         d="m -339.58642,12.956736 c -2.6066,0.0054 -5.6751,0.263903 -9.32336,0.839904 -5.5964,2.197651 -7.49412,4.833194 -10.21412,7.407015 l -1.54337,1.431354 0.10944,2.345737 3.43251,5.430883 0.16226,2.33541 -0.32293,7.440182 7.84076,6.034051 7.61159,3.194378 c 7.78788,-0.520989 16.11583,-0.424608 21.80377,-3.346511 l 2.73003,-1.681598 1.31974,-3.017423 -0.80495,-7.692013 -2.2786,-7.934711 -1.8677,-2.444643 3.17969,9.10748 -0.53783,2.969756 -2.15805,2.944336 -2.94851,1.575146 -1.7517,-1.312389 -7.81833,1.434134 -1.63692,1.948326 -13.47482,-1.558065 -3.31454,-1.425197 -0.71657,-9.363484 -0.28917,-0.527895 2.17017,2.54474 c 6.72158,8.522051 26.72364,6.631867 29.73391,-2.720109 l -0.43733,-5.616779 c -4.26271,-4.51859 -6.09599,-10.368013 -18.65507,-10.342015 z" />
      <rect
         style="fill:#ff0000;stroke:none;stroke-width:3.23341;stroke-linecap:round"
         id="rect878"
         width="6.1452227"
         height="1.3594663"
         x="-338.92355"
         y="63.072788"
         rx="0.67973316"
         ry="0.67973316"
         transform="rotate(4.234906)" />
      <rect
         style="fill:#ff0000;stroke:none;stroke-width:3.23341;stroke-linecap:round"
         id="rect880"
         width="4.3215947"
         height="0.9560374"
         x="270.08084"
         y="-177.73643"
         rx="0.4780187"
         ry="0.4780187"
         transform="matrix(-0.77299557,0.63441142,0.63441142,0.77299557,0,0)" />
      <path
         style="opacity:1;vector-effect:none;fill:#1a1a1a;fill-opacity:1;stroke:none;stroke-width:0.427753px;stroke-linecap:butt;stroke-linejoin:miter;stroke-miterlimit:4;stroke-dasharray:none;stroke-dashoffset:0;stroke-opacity:1"
         d="m -337.44533,33.071685 c 5.19324,0.955035 9.80609,0.788015 13.11596,-1.898045 -1.75977,-7.337688 -4.75947,-11.481628 -8.2907,-14.256503 -1.2499,-0.202674 -2.09568,-0.491591 -4.55323,-0.436544 -2.17517,0.556635 -3.03097,1.360496 -4.16555,2.112119 2.12344,4.801522 3.26032,9.63268 3.89352,14.478973 z"
         id="path884"
         sodipodi:nodetypes="cccccc" />
      <path
         style="opacity:1;vector-effect:none;fill:#ff0000;fill-opacity:1;stroke:none;stroke-width:0.427753px;stroke-linecap:butt;stroke-linejoin:miter;stroke-miterlimit:4;stroke-dasharray:none;stroke-dashoffset:0;stroke-opacity:1"
         d="m -331.90168,23.194419 c 1.85283,2.324252 3.45961,2.977633 3.24774,3.60279 -0.40815,1.461527 -1.53665,2.771023 -1.24028,4.165854 -1.88742,-2.069289 -3.58396,-1.719083 -4.16349,-3.049813 -0.17628,-0.568799 1.27472,-1.422622 1.36593,-2.07113 1.21691,0.281845 0.0416,1.493749 1.27049,1.731101 1.78796,-0.925012 0.30496,-1.7072 -0.72957,-2.855225 -0.17341,-0.526627 0.12132,-1.018995 0.24918,-1.523577 z"
         id="path882"
         sodipodi:nodetypes="cccccccc" />
    </g>
    <g
       aria-label="LIGHT IT UP"
       id="text1648"
       style="font-size:10.5833px;line-height:0;font-family:Acre;-inkscape-font-specification:Acre;letter-spacing:0px;word-spacing:0px;stroke-width:0.264583">
      <path
         d="m 725.09074,285.96532 h 0.42333 v 7.09081 h 4.86832 v 0.42333 h -5.29165 z"
         style="font-style:normal;font-variant:normal;font-weight:normal;font-stretch:normal;font-family:Dual;-inkscape-font-specification:Dual;stroke-width:0.264583"
         id="path3151" />
      <path
         d="m 731.62062,285.96532 h 0.42333 v 7.51414 h -0.42333 z"
         style="font-style:normal;font-variant:normal;font-weight:normal;font-stretch:normal;font-family:Dual;-inkscape-font-specification:Dual;stroke-width:0.264583"
         id="path3153" />
      <path
         d="m 740.38359,289.60597 v 3.87349 h -0.42333 v -0.65616 q -0.508,0.39158 -1.12183,0.61383 -0.60325,0.21166 -1.29116,0.21166 -0.81492,0 -1.53458,-0.30691 -0.70908,-0.30692 -1.24883,-0.83608 -0.52917,-0.53975 -0.83608,-1.24883 -0.30692,-0.71967 -0.30692,-1.53458 0,-0.81491 0.30692,-1.52399 0.30691,-0.71967 0.83608,-1.24883 0.53975,-0.53975 1.24883,-0.84667 0.71966,-0.30691 1.53458,-0.30691 0.76199,0 1.42874,0.27516 0.67733,0.26458 1.2065,0.74083 l -0.28575,0.30692 q -0.47625,-0.42333 -1.06891,-0.65617 -0.59267,-0.24341 -1.28058,-0.24341 -0.73025,0 -1.36525,0.27516 -0.635,0.27517 -1.11124,0.75142 -0.47625,0.47625 -0.75142,1.11124 -0.27516,0.635 -0.27516,1.36525 0,0.73025 0.27516,1.36525 0.27517,0.63499 0.75142,1.11124 0.47624,0.47625 1.11124,0.75142 0.635,0.27516 1.36525,0.27516 0.6985,0 1.31233,-0.254 0.62441,-0.254 1.10066,-0.69849 v -2.24366 h -3.24907 v -0.42334 z"
         style="font-style:normal;font-variant:normal;font-weight:normal;font-stretch:normal;font-family:Dual;-inkscape-font-specification:Dual;stroke-width:0.264583"
         id="path3155" />
      <path
         d="m 747.80247,289.93406 h -5.24932 v 3.5454 h -0.42333 v -7.51414 h 0.42333 v 3.5454 h 5.24932 v -3.5454 h 0.42333 v 7.51414 h -0.42333 z"
         style="font-style:normal;font-variant:normal;font-weight:normal;font-stretch:normal;font-family:Dual;-inkscape-font-specification:Dual;stroke-width:0.264583"
         id="path3157" />
      <path
         d="m 755.78226,285.96532 v 0.42333 h -2.96332 v 7.09081 h -0.42333 v -7.09081 h -2.96333 v -0.42333 z"
         style="font-style:normal;font-variant:normal;font-weight:normal;font-stretch:normal;font-family:Dual;-inkscape-font-specification:Dual;stroke-width:0.264583"
         id="path3159" />
      <path
         d="m 759.51813,285.96532 h 0.42334 v 7.51414 h -0.42334 z"
         style="font-style:normal;font-variant:normal;font-weight:normal;font-stretch:normal;font-family:Dual;-inkscape-font-specification:Dual;stroke-width:0.264583"
         id="path3161" />
      <path
         d="m 767.49794,285.96532 v 0.42333 h -2.96332 v 7.09081 h -0.42334 v -7.09081 h -2.96332 v -0.42333 z"
         style="font-style:normal;font-variant:normal;font-weight:normal;font-stretch:normal;font-family:Dual;-inkscape-font-specification:Dual;stroke-width:0.264583"
         id="path3163" />
      <path
         d="m 776.80063,285.96532 h 0.42333 v 4.63548 q 0,0.635 -0.24342,1.19592 -0.23283,0.55033 -0.64558,0.96308 -0.41275,0.41275 -0.97366,0.65616 -0.55033,0.23283 -1.18533,0.23283 -0.635,0 -1.19592,-0.23283 -0.55033,-0.24341 -0.96308,-0.65616 -0.41274,-0.41275 -0.65616,-0.96308 -0.23283,-0.56092 -0.23283,-1.19592 v -4.63548 h 0.42333 v 4.63548 q 0,0.53975 0.20108,1.02658 0.21167,0.47625 0.56092,0.83608 0.35983,0.34925 0.83608,0.56092 0.48683,0.20108 1.02658,0.20108 0.53975,0 1.01599,-0.20108 0.48684,-0.21167 0.83608,-0.56092 0.35984,-0.35983 0.56092,-0.83608 0.21167,-0.48683 0.21167,-1.02658 z"
         style="font-style:normal;font-variant:normal;font-weight:normal;font-stretch:normal;font-family:Dual;-inkscape-font-specification:Dual;stroke-width:0.264583"
         id="path3165" />
      <path
         d="m 779.6581,290.78072 v 2.69874 h -0.42333 v -7.51414 h 3.30199 q 0.49742,0 0.93133,0.1905 0.4445,0.1905 0.77258,0.51858 0.32808,0.32808 0.51858,0.77258 0.1905,0.43392 0.1905,0.93133 0,0.49742 -0.1905,0.94191 -0.1905,0.43392 -0.51858,0.762 -0.32808,0.32808 -0.77258,0.51858 -0.43391,0.17992 -0.93133,0.17992 z m 2.87866,-0.42333 q 0.41275,0 0.77258,-0.14817 0.35983,-0.15875 0.62442,-0.42333 0.27516,-0.27517 0.43391,-0.635 0.15875,-0.35983 0.15875,-0.77258 0,-0.41275 -0.15875,-0.77258 -0.15875,-0.35983 -0.43391,-0.62441 -0.26459,-0.27517 -0.62442,-0.43392 -0.35983,-0.15875 -0.77258,-0.15875 h -2.87866 v 3.96874 z"
         style="font-style:normal;font-variant:normal;font-weight:normal;font-stretch:normal;font-family:Dual;-inkscape-font-specification:Dual;stroke-width:0.264583"
         id="path3167" />
    </g>
  </g>
</svg>
