<?xml version="1.0" encoding="UTF-8" standalone="no"?>
<svg
   xmlns:dc="http://purl.org/dc/elements/1.1/"
   xmlns:cc="http://creativecommons.org/ns#"
   xmlns:rdf="http://www.w3.org/1999/02/22-rdf-syntax-ns#"
   xmlns:svg="http://www.w3.org/2000/svg"
   xmlns="http://www.w3.org/2000/svg"
   xmlns:sodipodi="http://sodipodi.sourceforge.net/DTD/sodipodi-0.dtd"
   xmlns:inkscape="http://www.inkscape.org/namespaces/inkscape"
   id="Capa_1"
   enable-background="new 0 0 512.002 512.002"
   height="24"
   viewBox="0 0 24.000094 24.000094"
   width="24"
   version="1.1"
   sodipodi:docname="fireworks.svg"
   inkscape:version="1.0.2 (1.0.2+r75+1)">
  <metadata
     id="metadata25">
    <rdf:RDF>
      <cc:Work
         rdf:about="">
        <dc:format>image/svg+xml</dc:format>
        <dc:type
           rdf:resource="http://purl.org/dc/dcmitype/StillImage" />
        <dc:title></dc:title>
      </cc:Work>
    </rdf:RDF>
  </metadata>
  <defs
     id="defs23" />
  <sodipodi:namedview
     pagecolor="#ffffff"
     bordercolor="#666666"
     borderopacity="1"
     objecttolerance="10"
     gridtolerance="10"
     guidetolerance="10"
     inkscape:pageopacity="0"
     inkscape:pageshadow="2"
     inkscape:window-width="1920"
     inkscape:window-height="1043"
     id="namedview21"
     showgrid="false"
     inkscape:zoom="14.234375"
     inkscape:cx="14.522243"
     inkscape:cy="29.994079"
     inkscape:window-x="1920"
     inkscape:window-y="0"
     inkscape:window-maximized="1"
     inkscape:current-layer="Capa_1"
     inkscape:document-rotation="0" />
  <g
     id="XMLID_1840_"
     style="fill:#ffffff;stroke-width:24.925"
     transform="matrix(0.04012034,0,0,0.04012034,1.7291998,1.7291998)">
    <g
       id="XMLID_1021_"
       style="fill:#ffffff;stroke-width:24.925">
      <path
         id="XMLID_1068_"
         d="m 492.25,285.422 c 2.591,-4.877 0.738,-10.931 -4.139,-13.523 -56.033,-29.776 -124.386,-22.635 -172.942,17.266 l -16.157,-16.157 26.387,-26.387 c 3.905,-3.905 3.905,-10.237 0,-14.143 -3.906,-3.905 -10.236,-3.905 -14.143,0 l -26.387,26.387 -64.381,-64.381 c 14.644,-19.639 23.857,-42.707 26.762,-67.27 3.347,-28.316 -1.98,-56.64 -15.408,-81.907 -2.591,-4.877 -8.647,-6.729 -13.523,-4.138 -4.877,2.592 -6.729,8.646 -4.138,13.523 21.538,40.53 18.167,88.656 -8.007,125.478 l -42.427,-42.427 c -5.953,-5.953 -14.415,-8.423 -22.637,-6.612 -8.222,1.813 -14.86,7.614 -17.758,15.519 L 1.532,478.982 c -3.327,9.077 -1.148,18.963 5.689,25.799 4.721,4.721 10.894,7.221 17.253,7.221 2.85,0 5.737,-0.503 8.546,-1.532 L 365.35,388.649 c 7.905,-2.897 13.706,-9.536 15.52,-17.757 1.812,-8.222 -0.659,-16.684 -6.612,-22.637 l -44.86,-44.861 c 42.253,-33.714 101.034,-39.497 149.329,-13.833 4.876,2.592 10.93,0.738 13.523,-4.139 z m -332.974,157.465 -90.161,-90.161 24.982,-68.151 133.33,133.33 z m -48.867,17.913 -59.207,-59.207 10.326,-28.169 77.05,77.05 z m -84.273,30.891 c -2.37,0.869 -4.007,-0.287 -4.774,-1.052 -0.766,-0.766 -1.921,-2.404 -1.052,-4.773 L 43.614,422.291 89.71,468.387 Z M 361.339,366.585 c -0.2,0.907 -0.839,2.54 -2.871,3.285 l -61.477,22.535 -56.877,-56.878 c -3.905,-3.906 -10.237,-3.905 -14.142,-10e-4 -3.905,3.905 -3.906,10.237 -0.001,14.142 l 50.322,50.323 -28.169,10.326 -146.44,-146.44 10.326,-28.169 50.323,50.322 c 1.952,1.953 4.512,2.929 7.071,2.929 2.559,0 5.119,-0.977 7.071,-2.929 3.905,-3.905 3.905,-10.237 -0.001,-14.142 l -56.877,-56.877 22.535,-61.477 c 0.745,-2.032 2.378,-2.671 3.286,-2.872 0.276,-0.061 0.631,-0.113 1.034,-0.113 0.919,0 2.09,0.272 3.154,1.337 l 210.51,210.51 c 1.53,1.531 1.423,3.282 1.223,4.189 z"
         style="fill:#ffffff;stroke-width:24.925" />
      <path
         id="XMLID_1441_"
         d="m 301.597,79.804 c 5.523,0 10,-4.477 10,-10 0,-8.375 6.814,-15.188 15.189,-15.188 19.402,0 35.188,-15.785 35.188,-35.188 0,-5.523 -4.478,-10 -10,-10 -5.522,0 -10,4.477 -10,10 0,8.375 -6.814,15.188 -15.188,15.188 -19.403,0 -35.189,15.785 -35.189,35.188 0,5.523 4.478,10 10,10 z"
         style="fill:#ffffff;stroke-width:24.925" />
      <path
         id="XMLID_1462_"
         d="m 390.319,174.195 c 20.039,0 36.342,-16.303 36.342,-36.341 0,-9.01 7.33,-16.341 16.341,-16.341 5.522,0 10,-4.477 10,-10 0,-5.523 -4.478,-10 -10,-10 -20.038,0 -36.341,16.303 -36.341,36.341 0,9.01 -7.331,16.341 -16.342,16.341 -5.522,0 -10,4.477 -10,10 0,5.523 4.478,10 10,10 z"
         style="fill:#ffffff;stroke-width:24.925" />
      <path
         id="XMLID_1489_"
         d="m 448.002,193.485 c 0,17.645 14.355,32 32,32 17.645,0 32,-14.355 32,-32 0,-17.645 -14.355,-32 -32,-32 -17.645,0 -32,14.355 -32,32 z m 32,-12 c 6.617,0 12,5.383 12,12 0,6.617 -5.383,12 -12,12 -6.617,0 -12,-5.383 -12,-12 0,-6.617 5.383,-12 12,-12 z"
         style="fill:#ffffff;stroke-width:24.925" />
      <path
         id="XMLID_1502_"
         d="m 315.11,169.854 c 17.645,0 32,-14.355 32,-32 0,-17.645 -14.355,-32 -32,-32 -17.645,0 -32,14.355 -32,32 0,17.645 14.356,32 32,32 z m 0,-44 c 6.617,0 12,5.383 12,12 0,6.617 -5.383,12 -12,12 -6.617,0 -12,-5.383 -12,-12 0,-6.617 5.383,-12 12,-12 z"
         style="fill:#ffffff;stroke-width:24.925" />
      <path
         id="XMLID_1619_"
         d="m 128.002,64 c 17.645,0 32,-14.355 32,-32 0,-17.645 -14.355,-32 -32,-32 -17.645,0 -32,14.355 -32,32 0,17.645 14.355,32 32,32 z m 0,-44 c 6.617,0 12,5.383 12,12 0,6.617 -5.383,12 -12,12 -6.617,0 -12,-5.383 -12,-12 0,-6.617 5.383,-12 12,-12 z"
         style="fill:#ffffff;stroke-width:24.925" />
      <path
         id="XMLID_1620_"
         d="m 452.505,351.058 c -3.904,-3.905 -10.234,-3.905 -14.143,-10e-4 -3.905,3.905 -3.905,10.237 0,14.142 l 9.428,9.428 c 1.953,1.953 4.512,2.929 7.071,2.929 2.559,0 5.118,-0.977 7.071,-2.929 3.905,-3.905 3.905,-10.237 0,-14.142 z"
         style="fill:#ffffff;stroke-width:24.925" />
      <path
         id="XMLID_1659_"
         d="m 499.645,398.198 c -3.906,-3.905 -10.236,-3.905 -14.143,0 -3.905,3.905 -3.905,10.237 0,14.143 l 9.428,9.428 c 1.953,1.953 4.512,2.929 7.071,2.929 2.559,0 5.118,-0.976 7.071,-2.929 3.905,-3.905 3.905,-10.237 0,-14.143 z"
         style="fill:#ffffff;stroke-width:24.925" />
      <path
         id="XMLID_1690_"
         d="m 494.93,351.058 -9.428,9.428 c -3.905,3.905 -3.905,10.237 0,14.142 1.953,1.953 4.512,2.929 7.071,2.929 2.559,0 5.119,-0.977 7.071,-2.929 l 9.428,-9.428 c 3.905,-3.905 3.905,-10.237 0,-14.142 -3.905,-3.906 -10.237,-3.905 -14.142,0 z"
         style="fill:#ffffff;stroke-width:24.925" />
      <path
         id="XMLID_1712_"
         d="m 447.79,398.198 -9.428,9.428 c -3.905,3.905 -3.905,10.237 0,14.143 1.953,1.953 4.512,2.929 7.071,2.929 2.56,0 5.118,-0.976 7.071,-2.929 l 9.428,-9.428 c 3.905,-3.905 3.905,-10.237 0,-14.143 -3.906,-3.905 -10.236,-3.905 -14.142,0 z"
         style="fill:#ffffff;stroke-width:24.925" />
      <path
         id="XMLID_1715_"
         d="m 492.574,29.428 c 2.559,0 5.119,-0.976 7.071,-2.929 l 9.428,-9.428 c 3.905,-3.905 3.905,-10.237 0,-14.142 -3.906,-3.905 -10.238,-3.905 -14.143,0 l -9.428,9.428 c -3.905,3.905 -3.905,10.237 0,14.142 1.954,1.953 4.512,2.929 7.072,2.929 z"
         style="fill:#ffffff;stroke-width:24.925" />
      <path
         id="XMLID_1747_"
         d="m 445.433,76.568 c 2.56,0 5.118,-0.976 7.071,-2.929 l 9.428,-9.428 c 3.905,-3.905 3.905,-10.237 0,-14.143 -3.906,-3.905 -10.236,-3.905 -14.143,0 l -9.428,9.428 c -3.905,3.905 -3.905,10.237 0,14.143 1.954,1.953 4.513,2.929 7.072,2.929 z"
         style="fill:#ffffff;stroke-width:24.925" />
      <path
         id="XMLID_1750_"
         d="m 499.645,50.069 c -3.906,-3.905 -10.236,-3.905 -14.143,0 -3.905,3.905 -3.905,10.237 0,14.143 l 9.428,9.428 c 1.953,1.953 4.512,2.929 7.071,2.929 2.559,0 5.118,-0.976 7.071,-2.929 3.905,-3.905 3.905,-10.237 0,-14.143 z"
         style="fill:#ffffff;stroke-width:24.925" />
      <path
         id="XMLID_1751_"
         d="m 447.79,26.499 c 1.953,1.953 4.512,2.929 7.071,2.929 2.559,0 5.118,-0.976 7.071,-2.929 3.905,-3.905 3.905,-10.237 0,-14.142 l -9.428,-9.428 c -3.904,-3.905 -10.234,-3.905 -14.143,0 -3.905,3.905 -3.905,10.237 0,14.142 z"
         style="fill:#ffffff;stroke-width:24.925" />
      <path
         id="XMLID_1755_"
         d="m 201.221,300.78 c -2.63,0 -5.21,1.07 -7.07,2.93 -1.86,1.86 -2.93,4.44 -2.93,7.07 0,2.63 1.07,5.21 2.93,7.07 1.86,1.86 4.44,2.93 7.07,2.93 2.63,0 5.21,-1.07 7.07,-2.93 1.86,-1.86 2.93,-4.44 2.93,-7.07 0,-2.63 -1.07,-5.21 -2.93,-7.07 -1.86,-1.86 -4.44,-2.93 -7.07,-2.93 z"
         style="fill:#ffffff;stroke-width:24.925" />
      <path
         id="XMLID_1756_"
         d="m 347.118,196.616 -7.25,7.25 c -3.905,3.905 -3.905,10.237 0,14.143 1.953,1.953 4.512,2.929 7.071,2.929 2.559,0 5.118,-0.976 7.071,-2.929 l 7.25,-7.25 c 3.905,-3.905 3.905,-10.237 0,-14.143 -3.906,-3.905 -10.236,-3.905 -14.142,0 z"
         style="fill:#ffffff;stroke-width:24.925" />
    </g>
  </g>
</svg>
