<?xml version="1.0" encoding="UTF-8" standalone="no"?>
<svg
   xmlns:dc="http://purl.org/dc/elements/1.1/"
   xmlns:cc="http://creativecommons.org/ns#"
   xmlns:rdf="http://www.w3.org/1999/02/22-rdf-syntax-ns#"
   xmlns:svg="http://www.w3.org/2000/svg"
   xmlns="http://www.w3.org/2000/svg"
   xmlns:sodipodi="http://sodipodi.sourceforge.net/DTD/sodipodi-0.dtd"
   xmlns:inkscape="http://www.inkscape.org/namespaces/inkscape"
   width="24"
   height="24"
   viewBox="0 0 6.3500002 6.3500002"
   version="1.1"
   id="svg1202"
   inkscape:version="1.0.2 (1.0.2+r75+1)"
   sodipodi:docname="sunset.svg">
  <defs
     id="defs1196" />
  <sodipodi:namedview
     id="base"
     pagecolor="#ffffff"
     bordercolor="#666666"
     borderopacity="1.0"
     inkscape:pageopacity="0.0"
     inkscape:pageshadow="2"
     inkscape:zoom="22.4"
     inkscape:cx="14.244724"
     inkscape:cy="16.663439"
     inkscape:document-units="mm"
     inkscape:current-layer="layer1"
     inkscape:document-rotation="0"
     showgrid="false"
     inkscape:window-width="1920"
     inkscape:window-height="1043"
     inkscape:window-x="1920"
     inkscape:window-y="0"
     inkscape:window-maximized="1"
     units="px" />
  <metadata
     id="metadata1199">
    <rdf:RDF>
      <cc:Work
         rdf:about="">
        <dc:format>image/svg+xml</dc:format>
        <dc:type
           rdf:resource="http://purl.org/dc/dcmitype/StillImage" />
        <dc:title />
      </cc:Work>
    </rdf:RDF>
  </metadata>
  <g
     inkscape:label="Layer 1"
     inkscape:groupmode="layer"
     id="layer1"
     transform="translate(-287.33476,-188.55307)">
    <path
       id="circle1823"
       style="color:#000000;font-style:normal;font-variant:normal;font-weight:normal;font-stretch:normal;font-size:medium;line-height:normal;font-family:sans-serif;font-variant-ligatures:normal;font-variant-position:normal;font-variant-caps:normal;font-variant-numeric:normal;font-variant-alternates:normal;font-variant-east-asian:normal;font-feature-settings:normal;font-variation-settings:normal;text-indent:0;text-align:start;text-decoration:none;text-decoration-line:none;text-decoration-style:solid;text-decoration-color:#000000;letter-spacing:normal;word-spacing:normal;text-transform:none;writing-mode:lr-tb;direction:ltr;text-orientation:mixed;dominant-baseline:auto;baseline-shift:baseline;text-anchor:start;white-space:normal;shape-padding:0;shape-margin:0;inline-size:0;clip-rule:nonzero;display:inline;overflow:visible;visibility:visible;isolation:auto;mix-blend-mode:normal;color-interpolation:sRGB;color-interpolation-filters:linearRGB;solid-color:#000000;solid-opacity:1;vector-effect:none;fill:#ffffff;fill-opacity:1;fill-rule:nonzero;stroke:none;stroke-width:1.75177;stroke-linecap:butt;stroke-linejoin:miter;stroke-miterlimit:4;stroke-dasharray:none;stroke-dashoffset:0;stroke-opacity:1;color-rendering:auto;image-rendering:auto;shape-rendering:auto;text-rendering:auto;enable-background:accumulate;stop-color:#000000"
       d="m 290.50976,189.90272 a 0.22086485,0.22086485 0 0 0 -0.22087,0.22088 v 0.44175 a 0.22086485,0.22086485 0 0 0 0.22087,0.22087 0.22086485,0.22086485 0 0 0 0.22088,-0.22087 v -0.44175 a 0.22086485,0.22086485 0 0 0 -0.22088,-0.22088 z m 1.71825,0.71057 v 5.1e-4 a 0.22086485,0.22086485 0 0 0 -0.0122,0 0.22086485,0.22086485 0 0 0 -0.14412,0.0648 l -0.31353,0.31352 a 0.22086485,0.22086485 0 0 0 0,0.31223 0.22086485,0.22086485 0 0 0 0.31223,0 l 0.31364,-0.31366 a 0.22086485,0.22086485 0 0 0 0,-0.31209 0.22086485,0.22086485 0 0 0 -0.1561,-0.0651 z m -3.43637,5.1e-4 a 0.22086485,0.22086485 0 0 0 -0.0125,7.6e-4 0.22086485,0.22086485 0 0 0 -0.14373,0.0648 0.22086485,0.22086485 0 0 0 0,0.31221 l 0.31366,0.31366 a 0.22086485,0.22086485 0 0 0 0.31235,0 0.22086485,0.22086485 0 0 0 0,-0.31235 l -0.31366,-0.31352 a 0.22086485,0.22086485 0 0 0 -0.15611,-0.0651 z m 1.71812,0.61414 c -0.72927,0 -1.32511,0.59584 -1.32511,1.32511 0,0.18494 0.0386,0.36112 0.10773,0.52136 h -1.19324 c -0.13268,0 -0.2395,0.10689 -0.2395,0.23952 0,0.13269 0.10677,0.2395 0.2395,0.2395 h 4.82129 c 0.13269,0 0.23951,-0.10677 0.23951,-0.2395 0,-0.13269 -0.10677,-0.23952 -0.23951,-0.23952 h -1.19324 c 0.0691,-0.16024 0.10774,-0.33642 0.10774,-0.52136 0,-0.72927 -0.59598,-1.32511 -1.32524,-1.32511 z m 0,0.44175 c 0.49054,0 0.88349,0.39283 0.88349,0.88336 0,0.19579 -0.0634,0.37545 -0.16979,0.52136 h -1.4274 c -0.10641,-0.14591 -0.16979,-0.32557 -0.16979,-0.52136 0,-0.49053 0.39296,-0.88336 0.88349,-0.88336 z m -2.42947,0.66249 a 0.22086485,0.22086485 0 0 0 -0.22088,0.22087 0.22086485,0.22086485 0 0 0 0.22088,0.22087 h 0.44175 a 0.22086485,0.22086485 0 0 0 0.22086,-0.22087 0.22086485,0.22086485 0 0 0 -0.22086,-0.22087 z m 4.41733,0 a 0.22086485,0.22086485 0 0 0 -0.22087,0.22087 0.22086485,0.22086485 0 0 0 0.22087,0.22087 h 0.44174 a 0.22086485,0.22086485 0 0 0 0.22075,-0.22087 0.22086485,0.22086485 0 0 0 -0.22075,-0.22087 z" />
  </g>
</svg>
